g transform5
v 0.1962124 0.6340389 0.3854796
v 0.2605547 0.6467474 0.4003933
v 0.258973 0.548006 0.4000267
v 0.1626341 0.5554516 0.505861
v 0.257237 0.4490211 0.3996243
v 0.1552911 0.4725621 0.4999012
v 0.2551925 0.3495495 0.3991505
v 0.1405736 0.3810681 0.4994473
v 0.2360926 0.2484459 0.3947233
v 0.1114332 0.2897176 0.497619
v 0.1831904 0.1445653 0.3824612
v 0.06082135 0.207258 0.4875355
v 0.109277 0.04847704 0.3653291
v -0.004137801 0.1336873 0.4724852
v 0.02714356 -0.0292497 0.3462915
v -0.07632013 0.06900331 0.4557564
v -0.06404283 -0.0851588 0.3251557
v -0.1552745 0.01869645 0.4367958
v -0.165115 -0.1157942 0.3017284
v -0.2405496 -0.01174283 0.4150504
v -0.2693554 -0.1237374 0.2775668
v -0.3297812 -0.02578209 0.3929779
v -0.3700463 -0.1115701 0.2542278
v -0.4206047 -0.02688887 0.3730364
v -0.4689625 -0.08934741 0.2313003
v -0.482993 -0.02152941 0.2280482
v -0.0321973 0.2843772 0.4659835
v 0.01613112 0.3524214 0.4769203
v 0.05534026 0.4261836 0.485213
v 0.08345009 0.5034871 0.490927
v 0.09848057 0.5821556 0.4941273
v 0.1358482 0.6615068 0.3714879
v -0.4459015 0.05860211 0.3695355
v -0.3668873 0.07021447 0.3877355
v -0.2906391 0.09057954 0.4056544
v -0.2181542 0.1221195 0.4227746
v -0.1504297 0.1672564 0.4385788
v -0.08819942 0.2225042 0.4530029
v -0.1252164 0.3638773 0.4444229
v -0.08395247 0.4205058 0.4539873
v -0.04901675 0.4809155 0.462085
v -0.02013945 0.5464381 0.4687076
v 0.002949241 0.6184048 0.473847
v 0.05237325 0.6935937 0.3521395
v -0.1722612 0.3119165 0.4335185
v -0.2245392 0.2655094 0.4214011
v -0.2814034 0.2255416 0.4082205
v -0.3422065 0.1928983 0.3941265
v -0.4062096 0.1666147 0.3792924
v -0.472674 0.1457258 0.3638914
v -0.4970022 0.05136613 0.2248011
v -0.5110121 0.1275342 0.2215537
v -0.2269722 0.4012935 0.2873906
v -0.1888954 0.4432369 0.2962164
v -0.1555236 0.4887137 0.3039516
v -0.1273161 0.5368444 0.3104897
v -0.102686 0.5914612 0.3161987
v -0.08004612 0.6563959 0.3214463
v -0.05840137 0.7264895 0.3264633
v -0.2692946 0.3637625 0.2775809
v -0.3153343 0.3311068 0.2669094
v -0.3645633 0.3037894 0.2554988
v -0.4163857 0.2746039 0.243487
v -0.4702059 0.236344 0.2310121
v -0.5250251 0.1935469 0.2183057
v 0.258973 0.548006 0.4000267
v 0.2605547 0.6467474 0.4003933
v 0.1962124 0.6340389 0.3854796
v 0.2190187 0.5554516 0.2626014
v 0.257237 0.4490211 0.3996243
v 0.2098024 0.4725621 0.2647229
v 0.2551925 0.3495495 0.3991505
v 0.1963861 0.3810681 0.2586557
v 0.2360926 0.2484459 0.3947233
v 0.1694128 0.2897176 0.2474777
v 0.1831904 0.1445653 0.3824612
v 0.1195259 0.207258 0.2342668
v 0.109277 0.04847704 0.3653291
v 0.05456958 0.1336873 0.2192042
v 0.02714356 -0.0292497 0.3462915
v -0.0176118 0.06900331 0.2024713
v -0.06404283 -0.0851588 0.3251557
v -0.09685644 0.01869645 0.1847633
v -0.165115 -0.1157942 0.3017284
v -0.1830026 -0.01174283 0.1667755
v -0.2693554 -0.1237374 0.2775668
v -0.2728456 -0.02578209 0.1473407
v -0.3700463 -0.1115701 0.2542278
v -0.3631806 -0.02688887 0.1252919
v -0.4689625 -0.08934741 0.2313003
v -0.482993 -0.02152941 0.2280482
v 0.02651102 0.2843772 0.2126985
v 0.0747228 0.3524214 0.2241385
v -0.0294911 0.2225042 0.1997179
v -0.09172134 0.1672564 0.1852936
v -0.1594927 0.1221195 0.1696915
v -0.232118 0.09057954 0.153177
v -0.3084742 0.07021447 0.1357241
v -0.387438 0.05860211 0.1173068
v -0.4970022 0.05136613 0.2248011
v -0.02524414 0.4205058 0.2007023
v 0.009691579 0.4809155 0.2087999
v 0.113582 0.4261836 0.233941
v 0.1413392 0.5034871 0.2411764
v 0.1562449 0.5821556 0.2449148
v 0.1358482 0.6615068 0.3714879
v 0.05237325 0.6935937 0.3521395
v 0.06153302 0.6184048 0.2210992
v 0.03853774 0.5464381 0.2155569
v -0.4139635 0.1457258 0.1105971
v -0.5110121 0.1275342 0.2215537
v -0.05840137 0.7264895 0.3264633
v -0.08004612 0.6563959 0.3214463
v -0.102686 0.5914612 0.3161987
v -0.1273161 0.5368444 0.3104897
v -0.1555236 0.4887137 0.3039516
v -0.06650809 0.3638773 0.1911378
v -0.1135528 0.3119165 0.1802334
v -0.1658309 0.2655094 0.168116
v -0.2226951 0.2255416 0.1549358
v -0.2834985 0.1928983 0.1408429
v -0.3475012 0.1666147 0.1260068
v -0.1888954 0.4432369 0.2962164
v -0.2269722 0.4012935 0.2873906
v -0.2692946 0.3637625 0.2775809
v -0.3153343 0.3311068 0.2669094
v -0.3645633 0.3037894 0.2554988
v -0.4163857 0.2746039 0.243487
v -0.4702059 0.236344 0.2310121
v -0.5250251 0.1935469 0.2183057
vt 0.8960057 0.25
vt 0.8467339 0
vt 0.7889449 0
vt 0.8336266 0.25
vt 0.7311559 0
vt 0.7675965 0.25
vt 0.6733669 0
vt 0.7006755 0.25
vt 0.6155779 0
vt 0.6336809 0.25
vt 0.557789 0
vt 0.5667975 0.25
vt 0.5 0
vt 0.5 0.25
vt 0.442211 0
vt 0.4332025 0.25
vt 0.3844221 0
vt 0.3663191 0.25
vt 0.3266331 0
vt 0.2993245 0.25
vt 0.2688441 0
vt 0.2324035 0.25
vt 0.2110551 0
vt 0.1663733 0.25
vt 0.1532661 0
vt 0.1039943 0.25
vt 0.5753664 0.5
vt 0.6511033 0.5
vt 0.7276999 0.5
vt 0.8059482 0.5
vt 0.8874017 0.5
vt 0.9755142 0.5
vt 0.1125983 0.5
vt 0.1940518 0.5
vt 0.2723 0.5
vt 0.3488967 0.5
vt 0.4246336 0.5
vt 0.5 0.5
vt 0.5810186 0.75
vt 0.662407 0.75
vt 0.7446769 0.75
vt 0.8286762 0.75
vt 0.9159838 0.75
vt 1.009558 0.75
vt 0.5 0.75
vt 0.4189814 0.75
vt 0.3375929 0.75
vt 0.2553231 0.75
vt 0.1713238 0.75
vt 0.08401612 0.75
vt 0.02448581 0.5
vt -0.009558217 0.75
vt 0.5 1
vt 0.5835326 1
vt 0.6670653 1
vt 0.7505979 1
vt 0.8341305 1
vt 0.9176632 1
vt 1.001196 1
vt 0.4164674 1
vt 0.3329347 1
vt 0.2494021 1
vt 0.1658694 1
vt 0.08233681 1
vt -0.001195802 1
vt 0.7889449 0
vt 0.8467339 0
vt 0.8960057 0.25
vt 0.8336266 0.25
vt 0.7311559 0
vt 0.7675965 0.25
vt 0.6733669 0
vt 0.7006755 0.25
vt 0.6155779 0
vt 0.6336809 0.25
vt 0.557789 0
vt 0.5667975 0.25
vt 0.5 0
vt 0.5 0.25
vt 0.442211 0
vt 0.4332025 0.25
vt 0.3844221 0
vt 0.3663191 0.25
vt 0.3266331 0
vt 0.2993245 0.25
vt 0.2688441 0
vt 0.2324035 0.25
vt 0.2110551 0
vt 0.1663733 0.25
vt 0.1532661 0
vt 0.1039943 0.25
vt 0.5753664 0.5
vt 0.6511033 0.5
vt 0.5 0.5
vt 0.4246336 0.5
vt 0.3488967 0.5
vt 0.2723 0.5
vt 0.1940518 0.5
vt 0.1125983 0.5
vt 0.02448581 0.5
vt 0.662407 0.75
vt 0.7446769 0.75
vt 0.7276999 0.5
vt 0.8059482 0.5
vt 0.8874017 0.5
vt 0.9755142 0.5
vt 1.009558 0.75
vt 0.9159838 0.75
vt 0.8286762 0.75
vt 0.08401612 0.75
vt -0.009558217 0.75
vt 1.001196 1
vt 0.9176632 1
vt 0.8341305 1
vt 0.7505979 1
vt 0.6670653 1
vt 0.5810186 0.75
vt 0.5 0.75
vt 0.4189814 0.75
vt 0.3375929 0.75
vt 0.2553231 0.75
vt 0.1713238 0.75
vt 0.5835326 1
vt 0.5 1
vt 0.4164674 1
vt 0.3329347 1
vt 0.2494021 1
vt 0.1658694 1
vt 0.08233681 1
vt -0.001195802 1
vn -0.01800916 0.3245396 0.9457006
vn 0.108058 0.2954522 0.9492269
vn 0.1030927 0.08904667 0.9906778
vn -0.01768137 0.1085718 0.9939313
vn 0.1112554 -0.1112554 0.9875447
vn 0.001327157 -0.03705284 0.9993124
vn 0.1855786 -0.1382091 0.9728611
vn 0.03881393 -0.02056 0.9990349
vn 0.2170779 -0.2176346 0.9515841
vn 0.03485822 -0.08610527 0.9956761
vn 0.1875469 -0.3084512 0.9325684
vn -0.002348915 -0.1584702 0.987361
vn 0.1478758 -0.3683252 0.9178613
vn -0.03109799 -0.1948067 0.9803485
vn 0.1036904 -0.411984 0.905272
vn -0.05831703 -0.226224 0.9723281
vn 0.03367159 -0.4510866 0.8918447
vn -0.1107426 -0.263163 0.9583743
vn -0.04901426 -0.4677044 0.8825248
vn -0.1689934 -0.2789156 0.9453292
vn -0.1126815 -0.4562357 0.8826957
vn -0.1997381 -0.2699297 0.9419356
vn -0.2334289 -0.4478033 0.863124
vn -0.4107063 -0.2801604 0.867658
vn -0.3473742 -0.1189433 0.9301525
vn -0.6279005 -0.1878472 0.7552844
vn -0.2248298 0.001160437 0.9743973
vn -0.2166725 0.001364305 0.9762434
vn -0.192159 -0.005257048 0.9813498
vn -0.1687297 -0.009343561 0.9856181
vn -0.1102411 0.2043195 0.9726769
vn -0.05755002 0.4037296 0.9130666
vn -0.4233786 -0.07981409 0.9024302
vn -0.2227714 -0.01971639 0.9746713
vn -0.2251567 -0.01265403 0.9742404
vn -0.2266762 -0.003788812 0.9739629
vn -0.2262842 -0.0003839131 0.9740612
vn -0.2257953 -6.317314E-06 0.9741747
vn -0.4107607 0.1649723 0.8966938
vn -0.425931 0.1423617 0.8934852
vn -0.4365405 0.1170158 0.8920424
vn -0.4440776 0.09198526 0.8912541
vn -0.3709936 0.2647116 0.8901077
vn -0.2608841 0.4421764 0.8581489
vn -0.3922583 0.1851881 0.901021
vn -0.3711103 0.203584 0.9059971
vn -0.3467945 0.2193417 0.9119336
vn -0.3223414 0.2318252 0.917798
vn -0.2994372 0.2349714 0.9247301
vn -0.454612 0.1552133 0.8770615
vn -0.5979347 -0.1858259 0.7797068
vn -0.6001379 -0.005737178 0.799876
vn -0.5407372 0.368931 0.7559717
vn -0.5772706 0.3285079 0.7475568
vn -0.6087458 0.2851252 0.7403596
vn -0.6365447 0.2365911 0.7340541
vn -0.6596975 0.1814278 0.7293032
vn -0.6309049 0.2513278 0.7340256
vn -0.5150312 0.32687 0.7924007
vn -0.4981729 0.406631 0.7658166
vn -0.4479066 0.4411287 0.7776793
vn -0.3876832 0.471238 0.7922351
vn -0.3129336 0.4875464 0.8150897
vn -0.3426528 0.4347447 0.8328182
vn -0.4114279 0.2354683 0.8805009
vn 0.5284181 0.08904665 -0.8443015
vn 0.5146411 0.2954521 -0.804893
vn 0.399878 0.3245396 -0.8571882
vn 0.4213909 0.1085718 -0.9003565
vn 0.5343701 -0.1112554 -0.8378967
vn 0.4408285 -0.03705283 -0.8968261
vn 0.5946545 -0.1382091 -0.7920128
vn 0.4743706 -0.02056 -0.8800851
vn 0.6135811 -0.2176346 -0.7590477
vn 0.4693406 -0.08610526 -0.8788091
vn 0.5786957 -0.3084512 -0.754963
vn 0.4322694 -0.1584702 -0.8877108
vn 0.5365997 -0.3683252 -0.7592084
vn 0.4033669 -0.1948067 -0.8940612
vn 0.4913815 -0.4119841 -0.7673418
vn 0.3753949 -0.226224 -0.8988333
vn 0.4225955 -0.4510867 -0.7860877
vn 0.3221765 -0.2631631 -0.9093665
vn 0.3442412 -0.4677044 -0.8140949
vn 0.2641267 -0.2789156 -0.9232785
vn 0.2871414 -0.4562357 -0.8422582
vn 0.235024 -0.2699297 -0.9337567
vn 0.1700964 -0.4478033 -0.8778037
vn 0.01289117 -0.2801604 -0.9598666
vn 0.09725892 -0.1189434 -0.9881262
vn -0.2315927 -0.1878472 -0.9545041
vn 0.2267722 0.001160437 -0.9739472
vn 0.2349099 0.001364305 -0.9720161
vn 0.2258072 -6.317314E-06 -0.9741721
vn 0.2253182 -0.0003839132 -0.9742852
vn 0.224923 -0.003788811 -0.9743692
vn 0.2264097 -0.01265403 -0.97395
vn 0.2287413 -0.01971639 -0.9732876
vn 0.01680875 -0.07981409 -0.996668
vn -0.1939383 -0.1858259 -0.9632532
vn 0.0105814 0.1423617 -0.9897581
vn 0.0004190206 0.1170158 -0.9931299
vn 0.2591702 -0.005257047 -0.9658174
vn 0.2820881 -0.00934356 -0.9593431
vn 0.3289191 0.2043195 -0.9219901
vn 0.3500122 0.4037295 -0.8452774
vn 0.1432523 0.4421765 -0.8854145
vn 0.05843085 0.2647115 -0.9625558
vn -0.006696432 0.09198525 -0.9957378
vn -0.02240032 0.1552133 -0.987627
vn -0.1870437 -0.005737178 -0.9823349
vn -0.1139041 0.32687 -0.93818
vn -0.2436433 0.2513278 -0.9367349
vn -0.2715775 0.1814278 -0.9451612
vn -0.2486955 0.2365911 -0.9392418
vn -0.2209572 0.2851252 -0.9326744
vn 0.02561636 0.1649723 -0.9859655
vn 0.04413571 0.1851881 -0.9817115
vn 0.06531628 0.203584 -0.9768763
vn 0.08976433 0.2193417 -0.97151
vn 0.1143039 0.2318252 -0.9660185
vn 0.1379222 0.2349714 -0.9621673
vn -0.1895254 0.3285079 -0.9252906
vn -0.1530153 0.368931 -0.9167749
vn -0.1104603 0.406631 -0.9068902
vn -0.06010098 0.4411288 -0.8954292
vn 0.0003850757 0.471238 -0.882006
vn 0.07756692 0.4875464 -0.8696448
vn 0.05867765 0.4347447 -0.89864
vn 0.01789324 0.2354683 -0.9717173
g transform5_0
f 3/3/3 2/2/2 1/1/1
f 4/4/4 3/3/3 1/1/1
f 5/5/5 3/3/3 4/4/4
f 6/6/6 5/5/5 4/4/4
f 7/7/7 5/5/5 6/6/6
f 8/8/8 7/7/7 6/6/6
f 9/9/9 7/7/7 8/8/8
f 10/10/10 9/9/9 8/8/8
f 11/11/11 9/9/9 10/10/10
f 12/12/12 11/11/11 10/10/10
f 13/13/13 11/11/11 12/12/12
f 14/14/14 13/13/13 12/12/12
f 15/15/15 13/13/13 14/14/14
f 16/16/16 15/15/15 14/14/14
f 17/17/17 15/15/15 16/16/16
f 18/18/18 17/17/17 16/16/16
f 19/19/19 17/17/17 18/18/18
f 20/20/20 19/19/19 18/18/18
f 21/21/21 19/19/19 20/20/20
f 22/22/22 21/21/21 20/20/20
f 23/23/23 21/21/21 22/22/22
f 24/24/24 23/23/23 22/22/22
f 25/25/25 23/23/23 24/24/24
f 26/26/26 25/25/25 24/24/24
f 14/14/14 12/12/12 27/27/27
f 27/27/27 12/12/12 28/28/28
f 12/12/12 10/10/10 28/28/28
f 28/28/28 10/10/10 29/29/29
f 10/10/10 8/8/8 29/29/29
f 29/29/29 8/8/8 30/30/30
f 8/8/8 6/6/6 30/30/30
f 30/30/30 6/6/6 31/31/31
f 6/6/6 4/4/4 31/31/31
f 31/31/31 4/4/4 32/32/32
f 4/4/4 1/1/1 32/32/32
f 26/26/26 24/24/24 33/33/33
f 33/33/33 24/24/24 34/34/34
f 24/24/24 22/22/22 34/34/34
f 34/34/34 22/22/22 35/35/35
f 22/22/22 20/20/20 35/35/35
f 35/35/35 20/20/20 36/36/36
f 20/20/20 18/18/18 36/36/36
f 36/36/36 18/18/18 37/37/37
f 18/18/18 16/16/16 37/37/37
f 37/37/37 16/16/16 38/38/38
f 16/16/16 14/14/14 38/38/38
f 38/38/38 14/14/14 27/27/27
f 38/38/38 27/27/27 39/39/39
f 39/39/39 27/27/27 40/40/40
f 27/27/27 28/28/28 40/40/40
f 40/40/40 28/28/28 41/41/41
f 28/28/28 29/29/29 41/41/41
f 41/41/41 29/29/29 42/42/42
f 29/29/29 30/30/30 42/42/42
f 42/42/42 30/30/30 43/43/43
f 30/30/30 31/31/31 43/43/43
f 43/43/43 31/31/31 44/44/44
f 31/31/31 32/32/32 44/44/44
f 45/45/45 38/38/38 39/39/39
f 37/37/37 38/38/38 45/45/45
f 46/46/46 37/37/37 45/45/45
f 36/36/36 37/37/37 46/46/46
f 47/47/47 36/36/36 46/46/46
f 35/35/35 36/36/36 47/47/47
f 48/48/48 35/35/35 47/47/47
f 34/34/34 35/35/35 48/48/48
f 49/49/49 34/34/34 48/48/48
f 33/33/33 34/34/34 49/49/49
f 50/50/50 33/33/33 49/49/49
f 51/51/51 33/33/33 50/50/50
f 51/51/51 26/26/26 33/33/33
f 52/52/52 51/51/51 50/50/50
f 46/46/46 45/45/45 53/53/53
f 53/53/53 45/45/45 54/54/54
f 45/45/45 39/39/39 54/54/54
f 54/54/54 39/39/39 55/55/55
f 39/39/39 40/40/40 55/55/55
f 55/55/55 40/40/40 56/56/56
f 40/40/40 41/41/41 56/56/56
f 56/56/56 41/41/41 57/57/57
f 41/41/41 42/42/42 57/57/57
f 57/57/57 42/42/42 58/58/58
f 42/42/42 43/43/43 58/58/58
f 58/58/58 43/43/43 59/59/59
f 43/43/43 44/44/44 59/59/59
f 60/60/60 46/46/46 53/53/53
f 47/47/47 46/46/46 60/60/60
f 61/61/61 47/47/47 60/60/60
f 48/48/48 47/47/47 61/61/61
f 62/62/62 48/48/48 61/61/61
f 49/49/49 48/48/48 62/62/62
f 63/63/63 49/49/49 62/62/62
f 50/50/50 49/49/49 63/63/63
f 64/64/64 50/50/50 63/63/63
f 52/52/52 50/50/50 64/64/64
f 65/65/65 52/52/52 64/64/64
f 68/68/68 67/67/67 66/66/66
f 69/69/69 68/68/68 66/66/66
f 69/69/69 66/66/66 70/70/70
f 71/71/71 69/69/69 70/70/70
f 71/71/71 70/70/70 72/72/72
f 73/73/73 71/71/71 72/72/72
f 73/73/73 72/72/72 74/74/74
f 75/75/75 73/73/73 74/74/74
f 75/75/75 74/74/74 76/76/76
f 77/77/77 75/75/75 76/76/76
f 77/77/77 76/76/76 78/78/78
f 79/79/79 77/77/77 78/78/78
f 79/79/79 78/78/78 80/80/80
f 81/81/81 79/79/79 80/80/80
f 81/81/81 80/80/80 82/82/82
f 83/83/83 81/81/81 82/82/82
f 83/83/83 82/82/82 84/84/84
f 85/85/85 83/83/83 84/84/84
f 85/85/85 84/84/84 86/86/86
f 87/87/87 85/85/85 86/86/86
f 87/87/87 86/86/86 88/88/88
f 89/89/89 87/87/87 88/88/88
f 89/89/89 88/88/88 90/90/90
f 91/91/91 89/89/89 90/90/90
f 92/92/92 77/77/77 79/79/79
f 92/92/92 93/93/93 77/77/77
f 94/94/94 92/92/92 79/79/79
f 94/94/94 79/79/79 81/81/81
f 95/95/95 94/94/94 81/81/81
f 95/95/95 81/81/81 83/83/83
f 96/96/96 95/95/95 83/83/83
f 96/96/96 83/83/83 85/85/85
f 97/97/97 96/96/96 85/85/85
f 97/97/97 85/85/85 87/87/87
f 98/98/98 97/97/97 87/87/87
f 98/98/98 87/87/87 89/89/89
f 99/99/99 98/98/98 89/89/89
f 99/99/99 89/89/89 91/91/91
f 100/100/100 99/99/99 91/91/91
f 101/101/101 93/93/93 92/92/92
f 101/101/101 102/102/102 93/93/93
f 102/102/102 103/103/103 93/93/93
f 93/93/93 103/103/103 75/75/75
f 103/103/103 73/73/73 75/75/75
f 103/103/103 104/104/104 73/73/73
f 104/104/104 71/71/71 73/73/73
f 104/104/104 105/105/105 71/71/71
f 105/105/105 69/69/69 71/71/71
f 105/105/105 106/106/106 69/69/69
f 106/106/106 68/68/68 69/69/69
f 107/107/107 106/106/106 105/105/105
f 108/108/108 107/107/107 105/105/105
f 108/108/108 105/105/105 104/104/104
f 109/109/109 108/108/108 104/104/104
f 109/109/109 104/104/104 103/103/103
f 102/102/102 109/109/109 103/103/103
f 110/110/110 99/99/99 100/100/100
f 111/111/111 110/110/110 100/100/100
f 112/112/112 107/107/107 108/108/108
f 113/113/113 112/112/112 108/108/108
f 113/113/113 108/108/108 109/109/109
f 114/114/114 113/113/113 109/109/109
f 114/114/114 109/109/109 102/102/102
f 115/115/115 114/114/114 102/102/102
f 115/115/115 102/102/102 101/101/101
f 116/116/116 115/115/115 101/101/101
f 116/116/116 101/101/101 117/117/117
f 117/117/117 101/101/101 92/92/92
f 117/117/117 92/92/92 94/94/94
f 118/118/118 117/117/117 94/94/94
f 118/118/118 94/94/94 95/95/95
f 119/119/119 118/118/118 95/95/95
f 119/119/119 95/95/95 96/96/96
f 120/120/120 119/119/119 96/96/96
f 120/120/120 96/96/96 97/97/97
f 121/121/121 120/120/120 97/97/97
f 121/121/121 97/97/97 98/98/98
f 122/122/122 121/121/121 98/98/98
f 122/122/122 98/98/98 99/99/99
f 110/110/110 122/122/122 99/99/99
f 123/123/123 116/116/116 117/117/117
f 123/123/123 117/117/117 118/118/118
f 124/124/124 123/123/123 118/118/118
f 124/124/124 118/118/118 119/119/119
f 125/125/125 124/124/124 119/119/119
f 125/125/125 119/119/119 120/120/120
f 126/126/126 125/125/125 120/120/120
f 126/126/126 120/120/120 121/121/121
f 127/127/127 126/126/126 121/121/121
f 127/127/127 121/121/121 122/122/122
f 128/128/128 127/127/127 122/122/122
f 128/128/128 122/122/122 110/110/110
f 129/129/129 128/128/128 110/110/110
f 129/129/129 110/110/110 111/111/111
f 130/130/130 129/129/129 111/111/111
f 93/93/93 75/75/75 77/77/77
